<!DOCTYPE svg PUBLIC "-//W3C//DTD SVG 1.1//EN" "http://www.w3.org/Graphics/SVG/1.1/DTD/svg11.dtd">
<!-- Uploaded to: SVG Repo, www.svgrepo.com, Transformed by: SVG Repo Mixer Tools -->
<svg version="1.0" id="Layer_1" xmlns="http://www.w3.org/2000/svg" xmlns:xlink="http://www.w3.org/1999/xlink" width="249px" height="249px" viewBox="-3.2 -3.2 70.40 70.40" enable-background="new 0 0 64 64" xml:space="preserve" fill="#303091" stroke="#303091">
<g id="SVGRepo_bgCarrier" stroke-width="0"/>
<g id="SVGRepo_tracerCarrier" stroke-linecap="round" stroke-linejoin="round"/>
<g id="SVGRepo_iconCarrier"> <path fill="#303091" d="M56,0H8C5.789,0,4,1.789,4,4v56c0,2.211,1.789,4,4,4h20V48h8v16h20c2.211,0,4-1.789,4-4V4 C60,1.789,58.211,0,56,0z M28,40h-8v-8h8V40z M28,24h-8v-8h8V24z M44,40h-8v-8h8V40z M44,24h-8v-8h8V24z"/> </g>
</svg>