<!DOCTYPE svg PUBLIC "-//W3C//DTD SVG 1.1//EN" "http://www.w3.org/Graphics/SVG/1.1/DTD/svg11.dtd">
<!-- Uploaded to: SVG Repo, www.svgrepo.com, Transformed by: SVG Repo Mixer Tools -->
<svg fill="#303091" height="800px" width="800px" version="1.1" id="Layer_1" xmlns="http://www.w3.org/2000/svg" xmlns:xlink="http://www.w3.org/1999/xlink" viewBox="0 0 512.001 512.001" xml:space="preserve" stroke="#303091">
<g id="SVGRepo_bgCarrier" stroke-width="0"/>
<g id="SVGRepo_tracerCarrier" stroke-linecap="round" stroke-linejoin="round"/>
<g id="SVGRepo_iconCarrier"> <g> <g> <path d="M405.333,97.941V74.667c0-11.776-9.536-21.333-21.333-21.333H42.667c-11.797,0-21.333,9.557-21.333,21.333v192 C9.536,266.667,0,276.224,0,288v106.667C0,406.464,9.536,416,21.333,416h3.925c8.832,24.789,32.299,42.667,60.075,42.667 c16.448,0,31.317-6.4,42.667-16.64c11.349,10.24,26.219,16.64,42.667,16.64c27.776,0,51.243-17.877,60.075-42.667h135.851 c8.832,24.789,32.299,42.667,60.075,42.667S477.911,440.79,486.743,416h3.925c11.797,0,21.333-9.536,21.333-21.333V288v-64 C512,160.704,465.771,108.139,405.333,97.941z M469.333,347.008c-1.237-1.109-2.667-1.963-3.989-2.987 c-1.344-1.024-2.624-2.091-4.032-3.008c-1.984-1.28-4.117-2.325-6.229-3.392c-1.451-0.725-2.837-1.557-4.352-2.176 c-2.453-0.981-5.035-1.664-7.616-2.368c-1.344-0.363-2.624-0.875-4.011-1.152c-4.032-0.789-8.171-1.259-12.437-1.259 c-4.032,0-7.936,0.491-11.755,1.195c-1.195,0.213-2.325,0.555-3.499,0.853c-2.624,0.64-5.184,1.429-7.68,2.389 c-1.216,0.469-2.411,0.939-3.563,1.493c-2.517,1.152-4.907,2.475-7.232,3.925c-0.896,0.555-1.813,1.024-2.667,1.621 c-3.051,2.133-5.952,4.48-8.597,7.104c-0.448,0.427-0.789,0.939-1.237,1.387c-2.155,2.261-4.139,4.672-5.952,7.232 c-0.704,0.96-1.301,1.984-1.941,3.008c-1.408,2.24-2.667,4.587-3.797,7.019c-0.533,1.088-1.024,2.176-1.472,3.307 c-0.299,0.725-0.704,1.408-0.96,2.133H231.019c-0.256-0.725-0.661-1.408-0.939-2.133c-0.469-1.131-0.981-2.219-1.493-3.328 c-1.131-2.432-2.389-4.757-3.797-6.997c-0.64-1.024-1.237-2.048-1.941-3.008c-1.813-2.56-3.797-4.971-5.952-7.232 c-0.448-0.448-0.789-0.96-1.237-1.387c-2.645-2.624-5.547-4.971-8.597-7.104c-0.853-0.597-1.792-1.067-2.667-1.621 c-2.325-1.451-4.715-2.773-7.211-3.925c-1.173-0.533-2.368-1.024-3.584-1.493c-2.496-0.96-5.056-1.749-7.68-2.389 c-1.173-0.299-2.304-0.64-3.499-0.853c-3.819-0.704-7.723-1.195-11.755-1.195c-4.267,0-8.405,0.469-12.437,1.259 c-1.387,0.277-2.667,0.811-4.011,1.152c-2.581,0.704-5.163,1.387-7.616,2.368c-1.515,0.619-2.901,1.451-4.352,2.176 c-2.112,1.067-4.245,2.112-6.208,3.392c-1.429,0.917-2.709,1.984-4.053,3.008c-1.323,1.024-2.752,1.877-3.989,2.987 c-1.237-1.109-2.667-1.963-3.989-2.987c-1.344-1.024-2.624-2.091-4.032-3.008c-1.984-1.28-4.117-2.325-6.229-3.392 c-1.451-0.725-2.837-1.557-4.352-2.176c-2.453-0.981-5.035-1.664-7.616-2.368c-1.344-0.363-2.624-0.875-4.011-1.152 c-4.032-0.789-8.171-1.259-12.437-1.259c-4.266,0-8.405,0.469-12.437,1.259c-1.387,0.277-2.667,0.811-4.011,1.152 c-2.581,0.704-5.163,1.387-7.616,2.368c-1.515,0.619-2.901,1.451-4.352,2.176c-2.112,1.067-4.245,2.112-6.208,3.392 c-1.429,0.917-2.709,1.984-4.053,3.008c-1.323,1.024-2.752,1.877-3.989,2.987v-37.675H384h85.333V347.008z M469.333,266.667h-64 V141.376c36.779,9.493,64,42.944,64,82.624V266.667z"/> </g> </g> </g>
</svg>