<?xml version="1.0" standalone="no"?>
<!DOCTYPE svg PUBLIC "-//W3C//DTD SVG 20010904//EN"
 "http://www.w3.org/TR/2001/REC-SVG-20010904/DTD/svg10.dtd">
<svg version="1.0" xmlns="http://www.w3.org/2000/svg"
 width="40.000000pt" height="40.000000pt" viewBox="0 0 40.000000 40.000000"
 preserveAspectRatio="xMidYMid meet">

<g transform="translate(0.000000,40.000000) scale(0.100000,-0.100000)"
fill="#000000" stroke="none">
<path d="M115 333 c-20 -5 -35 -21 -35 -37 0 -5 8 -2 18 7 22 20 63 30 80 19
23 -15 2 -40 -44 -51 -78 -20 -90 -68 -38 -157 26 -44 28 -45 41 -28 46 63 44
62 39 28 -5 -29 -3 -31 16 -26 12 3 29 13 40 24 20 20 44 23 84 8 15 -6 29 -9
31 -6 2 2 -9 26 -26 52 l-30 48 26 23 c15 14 22 30 19 39 -3 9 -6 18 -6 20 0
2 -21 4 -46 4 -31 0 -51 5 -58 16 -12 16 -77 26 -111 17z m175 -58 c11 -13 8
-19 -14 -40 -37 -34 -46 -31 -46 15 0 35 3 40 24 40 13 0 29 -7 36 -15z m-110
-40 c0 -39 -64 -63 -77 -28 -7 19 29 53 58 53 14 0 19 -7 19 -25z"/>
</g>
</svg>
